<?xml version="1.0" standalone="no"?>
<!DOCTYPE svg PUBLIC "-//W3C//DTD SVG 20010904//EN"
 "http://www.w3.org/TR/2001/REC-SVG-20010904/DTD/svg10.dtd">
<svg version="1.0" xmlns="http://www.w3.org/2000/svg"
 width="280.000000pt" height="280.000000pt" viewBox="0 0 280.000000 280.000000"
 preserveAspectRatio="xMidYMid meet">
<metadata>
Created by potrace 1.11, written by Peter Selinger 2001-2013
</metadata>
<g transform="translate(0.000000,280.000000) scale(0.100000,-0.100000)"
fill="#000000" stroke="none">
<path d="M1407 2604 c-1 -1 -24 -5 -52 -8 -175 -23 -377 -118 -505 -238 -157
-147 -262 -353 -284 -558 -6 -54 -12 -91 -21 -140 -6 -28 -11 -58 -19 -110 -3
-19 -10 -57 -16 -85 -6 -27 -13 -61 -16 -75 -2 -14 -7 -35 -9 -47 -3 -13 -7
-33 -9 -45 -7 -38 -46 -182 -53 -198 -7 -18 -6 -14 -22 -69 -7 -24 -16 -51
-20 -60 -36 -74 -91 -192 -91 -195 0 -4 21 1 88 20 7 2 14 2 16 1 2 -1 12 5
22 14 36 31 41 28 21 -12 -11 -23 -19 -58 -19 -85 1 -42 35 -134 61 -166 81
-100 117 -126 184 -133 40 -4 53 -13 123 -82 l78 -77 30 65 c54 115 100 254
130 391 l17 76 57 -37 c121 -79 168 -96 267 -96 83 0 168 10 187 21 4 3 5 -17
1 -43 -9 -54 -10 -191 -3 -243 12 -90 93 -202 181 -251 45 -25 136 -57 177
-61 22 -3 24 1 27 52 5 72 29 145 86 255 48 94 59 113 122 215 20 34 37 66 37
71 0 5 4 9 8 9 10 0 72 129 106 222 26 68 62 198 71 253 3 17 8 44 12 60 3 17
7 41 9 55 2 14 7 52 11 85 10 80 9 339 -1 395 -5 25 -9 55 -9 68 -1 12 -4 22
-7 22 -3 0 -6 8 -7 18 -1 9 -3 24 -5 32 -24 84 -31 107 -40 118 -6 6 -8 12 -5
12 10 0 -63 141 -105 204 -41 60 -142 166 -208 218 -83 65 -259 134 -390 154
-40 6 -208 12 -213 8z"/>
</g>
</svg>
